<svg xmlns="http://www.w3.org/2000/svg" xmlns:xlink="http://www.w3.org/1999/xlink" width="109" zoomAndPan="magnify" viewBox="0 0 81.75 373.500002" height="498" preserveAspectRatio="xMidYMid meet" version="1.2"><defs><clipPath id="0e56c7067a"><path d="M 0.28125 1.082031 L 35.40625 1.082031 L 35.40625 24.078125 L 0.28125 24.078125 Z M 0.28125 1.082031 "/></clipPath><clipPath id="5db79b581c"><path d="M 17.824219 1.082031 L 35.367188 24.078125 L 0.28125 24.078125 Z M 17.824219 1.082031 "/></clipPath><clipPath id="f3145954cf"><path d="M 0.28125 0.0820312 L 35.382812 0.0820312 L 35.382812 23.078125 L 0.28125 23.078125 Z M 0.28125 0.0820312 "/></clipPath><clipPath id="f8c79965cd"><path d="M 17.824219 0.0820312 L 35.367188 23.078125 L 0.28125 23.078125 Z M 17.824219 0.0820312 "/></clipPath><clipPath id="7dfce7ed06"><rect x="0" width="36" y="0" height="24"/></clipPath><clipPath id="4b851f2f60"><path d="M 0.242188 23.84375 L 35.367188 23.84375 L 35.367188 46.839844 L 0.242188 46.839844 Z M 0.242188 23.84375 "/></clipPath><clipPath id="3663ca3cdd"><path d="M 17.824219 46.839844 L 0.28125 23.84375 L 35.367188 23.84375 Z M 17.824219 46.839844 "/></clipPath><clipPath id="e7fca15f7e"><path d="M 0.242188 0.84375 L 35.367188 0.84375 L 35.367188 23.839844 L 0.242188 23.839844 Z M 0.242188 0.84375 "/></clipPath><clipPath id="4e7b604c77"><path d="M 17.824219 23.839844 L 0.28125 0.84375 L 35.367188 0.84375 Z M 17.824219 23.839844 "/></clipPath><clipPath id="04e9f0f968"><rect x="0" width="36" y="0" height="24"/></clipPath><clipPath id="31eac89508"><rect x="0" width="36" y="0" height="48"/></clipPath><clipPath id="f9a5afa1c4"><path d="M 0.28125 0.222656 L 33.699219 0.222656 L 33.699219 23.21875 L 0.28125 23.21875 Z M 0.28125 0.222656 "/></clipPath><clipPath id="2196418d96"><path d="M 16.964844 0.222656 L 33.644531 23.21875 L 0.28125 23.21875 Z M 16.964844 0.222656 "/></clipPath><clipPath id="35a2543890"><path d="M 0.28125 0.222656 L 33.699219 0.222656 L 33.699219 23.21875 L 0.28125 23.21875 Z M 0.28125 0.222656 "/></clipPath><clipPath id="5ee471afa0"><path d="M 16.964844 0.222656 L 33.644531 23.21875 L 0.28125 23.21875 Z M 16.964844 0.222656 "/></clipPath><clipPath id="862f15afae"><rect x="0" width="34" y="0" height="24"/></clipPath><clipPath id="89097be6a2"><path d="M 0.230469 22.984375 L 33.644531 22.984375 L 33.644531 45.980469 L 0.230469 45.980469 Z M 0.230469 22.984375 "/></clipPath><clipPath id="00da41d4b8"><path d="M 16.964844 45.980469 L 0.28125 22.984375 L 33.644531 22.984375 Z M 16.964844 45.980469 "/></clipPath><clipPath id="335a24b919"><path d="M 0.230469 0.984375 L 33.644531 0.984375 L 33.644531 23.980469 L 0.230469 23.980469 Z M 0.230469 0.984375 "/></clipPath><clipPath id="55bdf1cb70"><path d="M 16.964844 23.980469 L 0.28125 0.984375 L 33.644531 0.984375 Z M 16.964844 23.980469 "/></clipPath><clipPath id="45ca2ec45b"><rect x="0" width="34" y="0" height="24"/></clipPath><clipPath id="ae609bdbf3"><rect x="0" width="34" y="0" height="46"/></clipPath><clipPath id="df4b156c58"><path d="M 0.910156 111.71875 L 17.589844 111.71875 L 17.589844 157.527344 L 0.910156 157.527344 Z M 0.910156 111.71875 "/></clipPath><clipPath id="a964502a13"><path d="M 17.589844 134.597656 L 0.910156 157.480469 L 0.910156 111.71875 Z M 17.589844 134.597656 "/></clipPath><clipPath id="b699655f61"><path d="M 0.910156 0.71875 L 17.589844 0.71875 L 17.589844 46.519531 L 0.910156 46.519531 Z M 0.910156 0.71875 "/></clipPath><clipPath id="f2a4fd2f66"><path d="M 17.589844 23.597656 L 0.910156 46.480469 L 0.910156 0.71875 Z M 17.589844 23.597656 "/></clipPath><clipPath id="387a189d77"><rect x="0" width="18" y="0" height="47"/></clipPath><clipPath id="1b270756f6"><path d="M 64.222656 111.660156 L 80.902344 111.660156 L 80.902344 157.46875 L 64.222656 157.46875 Z M 64.222656 111.660156 "/></clipPath><clipPath id="5711b850e8"><path d="M 64.222656 134.589844 L 80.902344 111.710938 L 80.902344 157.46875 Z M 64.222656 134.589844 "/></clipPath><clipPath id="7509f932a1"><path d="M 0.222656 0.660156 L 16.902344 0.660156 L 16.902344 46.46875 L 0.222656 46.46875 Z M 0.222656 0.660156 "/></clipPath><clipPath id="91757dab38"><path d="M 0.222656 23.589844 L 16.902344 0.710938 L 16.902344 46.46875 Z M 0.222656 23.589844 "/></clipPath><clipPath id="c456bd55ae"><rect x="0" width="17" y="0" height="47"/></clipPath><clipPath id="b2a3891ca2"><path d="M 54 153 L 81.5 153 L 81.5 194 L 54 194 Z M 54 153 "/></clipPath><clipPath id="601d2f5ae6"><path d="M 0.910156 219.304688 L 17.589844 219.304688 L 17.589844 265.113281 L 0.910156 265.113281 Z M 0.910156 219.304688 "/></clipPath><clipPath id="269daee358"><path d="M 17.589844 242.183594 L 0.910156 265.066406 L 0.910156 219.304688 Z M 17.589844 242.183594 "/></clipPath><clipPath id="0a086c28fd"><path d="M 0.910156 0.304688 L 17.589844 0.304688 L 17.589844 46.113281 L 0.910156 46.113281 Z M 0.910156 0.304688 "/></clipPath><clipPath id="7b467cf91b"><path d="M 17.589844 23.183594 L 0.910156 46.066406 L 0.910156 0.304688 Z M 17.589844 23.183594 "/></clipPath><clipPath id="de4b4d2e0e"><rect x="0" width="18" y="0" height="47"/></clipPath><clipPath id="f29508d08f"><path d="M 62.378906 217.742188 L 80.902344 217.742188 L 80.902344 263.542969 L 62.378906 263.542969 Z M 62.378906 217.742188 "/></clipPath><clipPath id="ae0b0aaeec"><path d="M 62.378906 240.664062 L 80.902344 217.78125 L 80.902344 263.542969 Z M 62.378906 240.664062 "/></clipPath><clipPath id="ae30978da8"><path d="M 0.378906 0.742188 L 18.902344 0.742188 L 18.902344 46.542969 L 0.378906 46.542969 Z M 0.378906 0.742188 "/></clipPath><clipPath id="801533fd11"><path d="M 0.378906 23.664062 L 18.902344 0.78125 L 18.902344 46.542969 Z M 0.378906 23.664062 "/></clipPath><clipPath id="c014c8926f"><rect x="0" width="19" y="0" height="47"/></clipPath><clipPath id="e78b826c52"><path d="M 54 186 L 81.5 186 L 81.5 224 L 54 224 Z M 54 186 "/></clipPath><clipPath id="aa02625eab"><path d="M 52 259 L 81.5 259 L 81.5 302 L 52 302 Z M 52 259 "/></clipPath><clipPath id="60dcb01709"><path d="M 1.082031 23.023438 L 34.5 23.023438 L 34.5 46.019531 L 1.082031 46.019531 Z M 1.082031 23.023438 "/></clipPath><clipPath id="356fc6682c"><path d="M 17.816406 46.019531 L 1.136719 23.023438 L 34.5 23.023438 Z M 17.816406 46.019531 "/></clipPath><clipPath id="924a433e0d"><path d="M 0.0820312 0.0234375 L 33.5 0.0234375 L 33.5 23.019531 L 0.0820312 23.019531 Z M 0.0820312 0.0234375 "/></clipPath><clipPath id="462e0f9285"><path d="M 16.816406 23.019531 L 0.136719 0.0234375 L 33.5 0.0234375 Z M 16.816406 23.019531 "/></clipPath><clipPath id="fe91a2dbd6"><rect x="0" width="34" y="0" height="24"/></clipPath><clipPath id="c06f3d44cb"><path d="M 1.136719 0.261719 L 34.554688 0.261719 L 34.554688 23.257812 L 1.136719 23.257812 Z M 1.136719 0.261719 "/></clipPath><clipPath id="4fc763de00"><path d="M 17.820312 0.261719 L 34.5 23.257812 L 1.136719 23.257812 Z M 17.820312 0.261719 "/></clipPath><clipPath id="eafa1f9f6a"><path d="M 0.136719 0.261719 L 33.554688 0.261719 L 33.554688 23.257812 L 0.136719 23.257812 Z M 0.136719 0.261719 "/></clipPath><clipPath id="8bc4f05370"><path d="M 16.820312 0.261719 L 33.5 23.257812 L 0.136719 23.257812 Z M 16.820312 0.261719 "/></clipPath><clipPath id="0615959f45"><rect x="0" width="34" y="0" height="24"/></clipPath><clipPath id="a5640a2c9b"><rect x="0" width="35" y="0" height="47"/></clipPath><clipPath id="7763e84c9b"><path d="M 53 74 L 81.5 74 L 81.5 116 L 53 116 Z M 53 74 "/></clipPath><clipPath id="90f65cd173"><path d="M 0 326.679688 L 16.671875 326.679688 L 16.671875 372.488281 L 0 372.488281 Z M 0 326.679688 "/></clipPath><clipPath id="060d7efe0b"><path d="M 16.671875 349.558594 L -0.0078125 372.4375 L -0.0078125 326.679688 Z M 16.671875 349.558594 "/></clipPath><clipPath id="e7fbd58062"><path d="M 0 0.679688 L 16.671875 0.679688 L 16.671875 46.488281 L 0 46.488281 Z M 0 0.679688 "/></clipPath><clipPath id="97bb7a8c2d"><path d="M 16.671875 23.558594 L -0.0078125 46.4375 L -0.0078125 0.679688 Z M 16.671875 23.558594 "/></clipPath><clipPath id="b1e3c405fa"><rect x="0" width="17" y="0" height="47"/></clipPath><clipPath id="b31565d282"><path d="M 61.457031 326.632812 L 79.980469 326.632812 L 79.980469 372.429688 L 61.457031 372.429688 Z M 61.457031 326.632812 "/></clipPath><clipPath id="3530b3e069"><path d="M 61.457031 349.550781 L 79.980469 326.671875 L 79.980469 372.429688 Z M 61.457031 349.550781 "/></clipPath><clipPath id="005af7358b"><path d="M 0.457031 0.632812 L 18.980469 0.632812 L 18.980469 46.429688 L 0.457031 46.429688 Z M 0.457031 0.632812 "/></clipPath><clipPath id="4eb9560614"><path d="M 0.457031 23.550781 L 18.980469 0.671875 L 18.980469 46.429688 Z M 0.457031 23.550781 "/></clipPath><clipPath id="e9c5aacf9f"><rect x="0" width="19" y="0" height="47"/></clipPath><clipPath id="4dc8e0156f"><path d="M 52 292 L 81.5 292 L 81.5 331 L 52 331 Z M 52 292 "/></clipPath><clipPath id="2ed02dfe94"><path d="M 0.910156 0.320312 L 17.589844 0.320312 L 17.589844 46.128906 L 0.910156 46.128906 Z M 0.910156 0.320312 "/></clipPath><clipPath id="2d360bc050"><path d="M 17.589844 23.199219 L 0.910156 46.082031 L 0.910156 0.320312 Z M 17.589844 23.199219 "/></clipPath><clipPath id="89a6221ed6"><path d="M 0.910156 0.320312 L 17.589844 0.320312 L 17.589844 46.128906 L 0.910156 46.128906 Z M 0.910156 0.320312 "/></clipPath><clipPath id="b04c3fdcbb"><path d="M 17.589844 23.199219 L 0.910156 46.082031 L 0.910156 0.320312 Z M 17.589844 23.199219 "/></clipPath><clipPath id="e763b7bda7"><rect x="0" width="18" y="0" height="47"/></clipPath><clipPath id="751ef86d4b"><path d="M 61.457031 0.320312 L 79.980469 0.320312 L 79.980469 46.074219 L 61.457031 46.074219 Z M 61.457031 0.320312 "/></clipPath><clipPath id="28059124f0"><path d="M 61.457031 23.191406 L 79.980469 0.3125 L 79.980469 46.074219 Z M 61.457031 23.191406 "/></clipPath><clipPath id="f9ce8406c7"><path d="M 0.457031 0.320312 L 18.980469 0.320312 L 18.980469 46.074219 L 0.457031 46.074219 Z M 0.457031 0.320312 "/></clipPath><clipPath id="540a028eb3"><path d="M 0.457031 23.191406 L 18.980469 0.3125 L 18.980469 46.074219 Z M 0.457031 23.191406 "/></clipPath><clipPath id="ee8694b041"><rect x="0" width="19" y="0" height="47"/></clipPath><clipPath id="398026cbba"><path d="M 53 40 L 81.5 40 L 81.5 83 L 53 83 Z M 53 40 "/></clipPath></defs><g id="dd89d1f359"><g transform="matrix(1,0,0,1,23,166)"><g clip-path="url(#31eac89508)"><g clip-rule="nonzero" clip-path="url(#0e56c7067a)"><g clip-rule="nonzero" clip-path="url(#5db79b581c)"><g transform="matrix(1,0,0,1,0,1)"><g id="766f46a485" clip-path="url(#7dfce7ed06)"><g clip-rule="nonzero" clip-path="url(#f3145954cf)"><g clip-rule="nonzero" clip-path="url(#f8c79965cd)"><path style=" stroke:none;fill-rule:nonzero;fill:#e24021;fill-opacity:1;" d="M 0.28125 0.0820312 L 35.40625 0.0820312 L 35.40625 23.078125 L 0.28125 23.078125 Z M 0.28125 0.0820312 "/></g></g></g></g></g></g><g clip-rule="nonzero" clip-path="url(#4b851f2f60)"><g clip-rule="nonzero" clip-path="url(#3663ca3cdd)"><g transform="matrix(1,0,0,1,0,23)"><g id="62c20959ba" clip-path="url(#04e9f0f968)"><g clip-rule="nonzero" clip-path="url(#e7fca15f7e)"><g clip-rule="nonzero" clip-path="url(#4e7b604c77)"><path style=" stroke:none;fill-rule:nonzero;fill:#e24021;fill-opacity:1;" d="M 35.367188 23.839844 L 0.242188 23.839844 L 0.242188 0.84375 L 35.367188 0.84375 Z M 35.367188 23.839844 "/></g></g></g></g></g></g></g></g><g transform="matrix(1,0,0,1,23,274)"><g clip-path="url(#ae609bdbf3)"><g clip-rule="nonzero" clip-path="url(#f9a5afa1c4)"><g clip-rule="nonzero" clip-path="url(#2196418d96)"><g><g id="0d17aafadb" clip-path="url(#862f15afae)"><g clip-rule="nonzero" clip-path="url(#35a2543890)"><g clip-rule="nonzero" clip-path="url(#5ee471afa0)"><path style=" stroke:none;fill-rule:nonzero;fill:#e24021;fill-opacity:1;" d="M 0.28125 0.222656 L 33.609375 0.222656 L 33.609375 23.21875 L 0.28125 23.21875 Z M 0.28125 0.222656 "/></g></g></g></g></g></g><g clip-rule="nonzero" clip-path="url(#89097be6a2)"><g clip-rule="nonzero" clip-path="url(#00da41d4b8)"><g transform="matrix(1,0,0,1,0,22)"><g id="9721f12703" clip-path="url(#45ca2ec45b)"><g clip-rule="nonzero" clip-path="url(#335a24b919)"><g clip-rule="nonzero" clip-path="url(#55bdf1cb70)"><path style=" stroke:none;fill-rule:nonzero;fill:#e24021;fill-opacity:1;" d="M 33.644531 23.980469 L 0.320312 23.980469 L 0.320312 0.984375 L 33.644531 0.984375 Z M 33.644531 23.980469 "/></g></g></g></g></g></g></g></g><g clip-rule="nonzero" clip-path="url(#df4b156c58)"><g clip-rule="nonzero" clip-path="url(#a964502a13)"><g transform="matrix(1,0,0,1,0,111)"><g clip-path="url(#387a189d77)"><g clip-rule="nonzero" clip-path="url(#b699655f61)"><g clip-rule="nonzero" clip-path="url(#f2a4fd2f66)"><path style=" stroke:none;fill-rule:nonzero;fill:#e24021;fill-opacity:1;" d="M 17.589844 0.71875 L 17.589844 46.460938 L 0.910156 46.460938 L 0.910156 0.71875 Z M 17.589844 0.71875 "/></g></g></g></g></g></g><g clip-rule="nonzero" clip-path="url(#1b270756f6)"><g clip-rule="nonzero" clip-path="url(#5711b850e8)"><g transform="matrix(1,0,0,1,64,111)"><g clip-path="url(#c456bd55ae)"><g clip-rule="nonzero" clip-path="url(#7509f932a1)"><g clip-rule="nonzero" clip-path="url(#91757dab38)"><path style=" stroke:none;fill-rule:nonzero;fill:#e24021;fill-opacity:1;" d="M 0.222656 46.46875 L 0.222656 0.726562 L 16.902344 0.726562 L 16.902344 46.46875 Z M 0.222656 46.46875 "/></g></g></g></g></g></g><path style="fill:none;stroke-width:1;stroke-linecap:round;stroke-linejoin:miter;stroke:#e24021;stroke-opacity:1;stroke-miterlimit:4;" d="M 0.499224 0.498194 L 52.903841 0.499974 " transform="matrix(0.434888,0.608233,-0.608233,0.434888,17.902318,134.385947)"/><path style="fill:none;stroke-width:1;stroke-linecap:round;stroke-linejoin:miter;stroke:#e24021;stroke-opacity:1;stroke-miterlimit:4;" d="M 0.49855 0.500339 L 52.243438 0.498759 " transform="matrix(0.424012,0.615865,-0.615865,0.424012,1.225657,157.269874)"/><path style="fill:none;stroke-width:1;stroke-linecap:round;stroke-linejoin:miter;stroke:#e24021;stroke-opacity:1;stroke-miterlimit:4;" d="M 0.49866 0.500395 L 53.041536 0.500756 " transform="matrix(0.43699,-0.606725,0.606725,0.43699,40.521457,166.861225)"/><g clip-rule="nonzero" clip-path="url(#b2a3891ca2)"><path style="fill:none;stroke-width:1;stroke-linecap:round;stroke-linejoin:miter;stroke:#e24021;stroke-opacity:1;stroke-miterlimit:4;" d="M 0.497047 0.49895 L 52.373957 0.498555 " transform="matrix(-0.426194,0.614357,-0.614357,-0.426194,81.201965,157.696348)"/></g><g clip-rule="nonzero" clip-path="url(#601d2f5ae6)"><g clip-rule="nonzero" clip-path="url(#269daee358)"><g transform="matrix(1,0,0,1,0,219)"><g clip-path="url(#de4b4d2e0e)"><g clip-rule="nonzero" clip-path="url(#0a086c28fd)"><g clip-rule="nonzero" clip-path="url(#7b467cf91b)"><path style=" stroke:none;fill-rule:nonzero;fill:#e24021;fill-opacity:1;" d="M 17.589844 0.304688 L 17.589844 46.046875 L 0.910156 46.046875 L 0.910156 0.304688 Z M 17.589844 0.304688 "/></g></g></g></g></g></g><g clip-rule="nonzero" clip-path="url(#f29508d08f)"><g clip-rule="nonzero" clip-path="url(#ae0b0aaeec)"><g transform="matrix(1,0,0,1,62,217)"><g clip-path="url(#c014c8926f)"><g clip-rule="nonzero" clip-path="url(#ae30978da8)"><g clip-rule="nonzero" clip-path="url(#801533fd11)"><path style=" stroke:none;fill-rule:nonzero;fill:#e24021;fill-opacity:1;" d="M 0.378906 46.542969 L 0.378906 0.816406 L 18.902344 0.816406 L 18.902344 46.542969 Z M 0.378906 46.542969 "/></g></g></g></g></g></g><path style="fill:none;stroke-width:1;stroke-linecap:round;stroke-linejoin:miter;stroke:#e24021;stroke-opacity:1;stroke-miterlimit:4;" d="M 0.498723 0.502544 L 48.842332 0.500921 " transform="matrix(-0.453237,0.594686,-0.594686,-0.453237,23.57177,190.192907)"/><path style="fill:none;stroke-width:1;stroke-linecap:round;stroke-linejoin:miter;stroke:#e24021;stroke-opacity:1;stroke-miterlimit:4;" d="M 0.499571 0.497938 L 49.550065 0.497732 " transform="matrix(-0.464049,0.586288,-0.586288,-0.464049,41.11751,213.074894)"/><g clip-rule="nonzero" clip-path="url(#e78b826c52)"><path style="fill:none;stroke-width:1;stroke-linecap:round;stroke-linejoin:miter;stroke:#e24021;stroke-opacity:1;stroke-miterlimit:4;" d="M 0.49891 0.50055 L 48.979013 0.500967 " transform="matrix(0.455411,0.593023,-0.593023,0.455411,58.663379,189.737898)"/></g><path style="fill:none;stroke-width:1;stroke-linecap:round;stroke-linejoin:miter;stroke:#e24021;stroke-opacity:1;stroke-miterlimit:4;" d="M 0.500535 0.497546 L 46.575653 0.502212 " transform="matrix(0.457872,0.591125,-0.591125,0.457872,41.119618,212.616934)"/><path style="fill:none;stroke-width:1;stroke-linecap:round;stroke-linejoin:miter;stroke:#e24021;stroke-opacity:1;stroke-miterlimit:4;" d="M 0.497771 0.500677 L 51.754531 0.500054 " transform="matrix(0.427985,0.61311,-0.61311,0.427985,17.906432,241.972717)"/><path style="fill:none;stroke-width:1;stroke-linecap:round;stroke-linejoin:miter;stroke:#e24021;stroke-opacity:1;stroke-miterlimit:4;" d="M 0.500144 0.5007 L 53.427368 0.499495 " transform="matrix(0.414691,0.622179,-0.622179,0.414691,1.229119,263.344466)"/><g clip-rule="nonzero" clip-path="url(#aa02625eab)"><path style="fill:none;stroke-width:1;stroke-linecap:round;stroke-linejoin:miter;stroke:#e24021;stroke-opacity:1;stroke-miterlimit:4;" d="M 0.4983 0.500746 L 54.874509 0.500788 " transform="matrix(-0.438065,0.60595,-0.60595,-0.438065,81.197496,263.772883)"/></g><path style="fill:none;stroke-width:1;stroke-linecap:round;stroke-linejoin:miter;stroke:#e24021;stroke-opacity:1;stroke-miterlimit:4;" d="M 0.499623 0.500489 L 53.468889 0.498534 " transform="matrix(-0.415358,0.621734,-0.621734,-0.415358,62.682756,240.881625)"/><g transform="matrix(1,0,0,1,23,55)"><g clip-path="url(#a5640a2c9b)"><g clip-rule="nonzero" clip-path="url(#60dcb01709)"><g clip-rule="nonzero" clip-path="url(#356fc6682c)"><g transform="matrix(1,0,0,1,1,23)"><g id="8b1f00348c" clip-path="url(#fe91a2dbd6)"><g clip-rule="nonzero" clip-path="url(#924a433e0d)"><g clip-rule="nonzero" clip-path="url(#462e0f9285)"><path style=" stroke:none;fill-rule:nonzero;fill:#e24021;fill-opacity:1;" d="M 33.5 23.019531 L 0.171875 23.019531 L 0.171875 0.0234375 L 33.5 0.0234375 Z M 33.5 23.019531 "/></g></g></g></g></g></g><g clip-rule="nonzero" clip-path="url(#c06f3d44cb)"><g clip-rule="nonzero" clip-path="url(#4fc763de00)"><g transform="matrix(1,0,0,1,1,-0.000000000000014211)"><g id="c78a2cd44e" clip-path="url(#0615959f45)"><g clip-rule="nonzero" clip-path="url(#eafa1f9f6a)"><g clip-rule="nonzero" clip-path="url(#8bc4f05370)"><path style=" stroke:none;fill-rule:nonzero;fill:#e24021;fill-opacity:1;" d="M 0.136719 0.261719 L 33.464844 0.261719 L 33.464844 23.257812 L 0.136719 23.257812 Z M 0.136719 0.261719 "/></g></g></g></g></g></g></g></g><path style="fill:none;stroke-width:1;stroke-linecap:round;stroke-linejoin:miter;stroke:#e24021;stroke-opacity:1;stroke-miterlimit:4;" d="M 0.501792 0.500363 L 54.094836 0.502628 " transform="matrix(0.425417,-0.614895,0.614895,0.425417,0.611671,111.505843)"/><g clip-rule="nonzero" clip-path="url(#7763e84c9b)"><path style="fill:none;stroke-width:1;stroke-linecap:round;stroke-linejoin:miter;stroke:#e24021;stroke-opacity:1;stroke-miterlimit:4;" d="M 0.498651 0.501193 L 54.224117 0.501023 " transform="matrix(0.427519,0.613435,-0.613435,0.427519,57.813017,77.936871)"/></g><path style="fill:none;stroke-width:1;stroke-linecap:round;stroke-linejoin:miter;stroke:#e24021;stroke-opacity:1;stroke-miterlimit:4;" d="M 0.497624 0.500638 L 54.094964 0.49993 " transform="matrix(0.425417,-0.614895,0.614895,0.425417,17.292962,134.385975)"/><path style="fill:none;stroke-width:1;stroke-linecap:round;stroke-linejoin:miter;stroke:#e24021;stroke-opacity:1;stroke-miterlimit:4;" d="M 0.498531 0.498498 L 54.223997 0.498328 " transform="matrix(0.427519,0.613435,-0.613435,0.427519,41.131728,100.817004)"/><g clip-rule="nonzero" clip-path="url(#90f65cd173)"><g clip-rule="nonzero" clip-path="url(#060d7efe0b)"><g transform="matrix(1,0,0,1,0,326)"><g clip-path="url(#b1e3c405fa)"><g clip-rule="nonzero" clip-path="url(#e7fbd58062)"><g clip-rule="nonzero" clip-path="url(#97bb7a8c2d)"><path style=" stroke:none;fill-rule:nonzero;fill:#e24021;fill-opacity:1;" d="M 16.671875 0.679688 L 16.671875 46.421875 L -0.0078125 46.421875 L -0.0078125 0.679688 Z M 16.671875 0.679688 "/></g></g></g></g></g></g><g clip-rule="nonzero" clip-path="url(#b31565d282)"><g clip-rule="nonzero" clip-path="url(#3530b3e069)"><g transform="matrix(1,0,0,1,61,326)"><g clip-path="url(#e9c5aacf9f)"><g clip-rule="nonzero" clip-path="url(#005af7358b)"><g clip-rule="nonzero" clip-path="url(#4eb9560614)"><path style=" stroke:none;fill-rule:nonzero;fill:#e24021;fill-opacity:1;" d="M 0.457031 46.429688 L 0.457031 0.703125 L 18.980469 0.703125 L 18.980469 46.429688 Z M 0.457031 46.429688 "/></g></g></g></g></g></g><path style="fill:none;stroke-width:1;stroke-linecap:butt;stroke-linejoin:miter;stroke:#e24021;stroke-opacity:1;stroke-miterlimit:4;" d="M -0.00138151 0.499127 L 50.539432 0.500764 " transform="matrix(0.454363,-0.593826,0.593826,0.454363,0.020639,326.885676)"/><path style="fill:none;stroke-width:1;stroke-linecap:butt;stroke-linejoin:miter;stroke:#e24021;stroke-opacity:1;stroke-miterlimit:4;" d="M 0.000191569 0.500148 L 50.338231 0.498964 " transform="matrix(0.462512,-0.587501,0.587501,0.462512,16.385761,349.323475)"/><g clip-rule="nonzero" clip-path="url(#4dc8e0156f)"><path style="fill:none;stroke-width:1;stroke-linecap:butt;stroke-linejoin:miter;stroke:#e24021;stroke-opacity:1;stroke-miterlimit:4;" d="M -0.000564795 0.498918 L 50.382749 0.500192 " transform="matrix(0.463183,0.586973,-0.586973,0.463183,56.937644,296.87471)"/></g><path style="fill:none;stroke-width:1;stroke-linecap:butt;stroke-linejoin:miter;stroke:#e24021;stroke-opacity:1;stroke-miterlimit:4;" d="M -0.0000956117 0.497173 L 48.901387 0.500108 " transform="matrix(0.439616,0.604825,-0.604825,0.439616,40.265588,319.765868)"/><g clip-rule="nonzero" clip-path="url(#2ed02dfe94)"><g clip-rule="nonzero" clip-path="url(#2d360bc050)"><g transform="matrix(1,0,0,1,0,-0.00000000000000927)"><g clip-path="url(#e763b7bda7)"><g clip-rule="nonzero" clip-path="url(#89a6221ed6)"><g clip-rule="nonzero" clip-path="url(#b04c3fdcbb)"><path style=" stroke:none;fill-rule:nonzero;fill:#e24021;fill-opacity:1;" d="M 17.589844 0.320312 L 17.589844 46.0625 L 0.910156 46.0625 L 0.910156 0.320312 Z M 17.589844 0.320312 "/></g></g></g></g></g></g><g clip-rule="nonzero" clip-path="url(#751ef86d4b)"><g clip-rule="nonzero" clip-path="url(#28059124f0)"><g transform="matrix(1,0,0,1,61,-0.00000000000000927)"><g clip-path="url(#ee8694b041)"><g clip-rule="nonzero" clip-path="url(#f9ce8406c7)"><g clip-rule="nonzero" clip-path="url(#540a028eb3)"><path style=" stroke:none;fill-rule:nonzero;fill:#e24021;fill-opacity:1;" d="M 0.457031 46.074219 L 0.457031 0.34375 L 18.980469 0.34375 L 18.980469 46.074219 Z M 0.457031 46.074219 "/></g></g></g></g></g></g><path style="fill:none;stroke-width:1;stroke-linecap:butt;stroke-linejoin:miter;stroke:#e24021;stroke-opacity:1;stroke-miterlimit:4;" d="M -0.00081785 0.497065 L 52.954517 0.501432 " transform="matrix(0.438583,0.605574,-0.605574,0.438583,17.902931,22.98171)"/><path style="fill:none;stroke-width:1;stroke-linecap:butt;stroke-linejoin:miter;stroke:#e24021;stroke-opacity:1;stroke-miterlimit:4;" d="M 0.00101593 0.502418 L 54.609745 0.499198 " transform="matrix(0.425291,0.614982,-0.614982,0.425291,1.226515,44.352108)"/><path style="fill:none;stroke-width:1;stroke-linecap:butt;stroke-linejoin:miter;stroke:#e24021;stroke-opacity:1;stroke-miterlimit:4;" d="M -0.00223467 0.498988 L 51.001698 0.499393 " transform="matrix(0.404605,-0.628784,0.628784,0.404605,40.511367,55.066233)"/><g clip-rule="nonzero" clip-path="url(#398026cbba)"><path style="fill:none;stroke-width:1;stroke-linecap:butt;stroke-linejoin:miter;stroke:#e24021;stroke-opacity:1;stroke-miterlimit:4;" d="M 0.000950992 0.500444 L 54.049746 0.499553 " transform="matrix(0.415867,-0.621393,0.621393,0.415867,57.196444,77.94091)"/></g></g></svg>